<?xml version="1.0" standalone="no"?>
<!DOCTYPE svg PUBLIC "-//W3C//DTD SVG 20010904//EN"
 "http://www.w3.org/TR/2001/REC-SVG-20010904/DTD/svg10.dtd">
<svg version="1.0" xmlns="http://www.w3.org/2000/svg"
 width="512.000000pt" height="512.000000pt" viewBox="0 0 512.000000 512.000000"
 preserveAspectRatio="xMidYMid meet">
<metadata>
Created by potrace 1.11, written by Peter Selinger 2001-2013
</metadata>
<g transform="translate(0.000000,512.000000) scale(0.100000,-0.100000)"
fill="#000000" stroke="none">
<path d="M2490 5111 c-14 -5 -77 -37 -140 -73 -109 -61 -145 -82 -257 -145
-74 -41 -763 -428 -808 -453 -22 -13 -65 -37 -96 -54 -524 -291 -826 -466
-855 -495 -20 -20 -45 -56 -57 -81 -21 -45 -21 -48 -21 -1224 -1 -786 2 -1196
9 -1231 15 -73 49 -118 127 -170 37 -25 69 -45 71 -45 3 0 49 -25 103 -56 55
-31 124 -70 154 -86 30 -17 105 -58 165 -93 61 -34 218 -123 350 -197 132 -74
260 -146 285 -160 25 -14 119 -67 210 -118 91 -50 179 -100 195 -110 17 -10
53 -30 80 -45 28 -15 145 -81 261 -146 181 -102 220 -120 268 -125 33 -3 71
-1 93 7 30 9 371 196 563 307 19 12 62 35 95 53 33 18 77 43 97 55 21 13 40
24 43 24 3 0 22 10 43 23 20 13 69 41 107 62 39 21 158 87 265 148 107 60 220
123 250 140 30 16 84 47 120 67 36 21 85 48 110 62 25 14 63 35 85 48 22 12
109 61 193 108 165 93 213 133 245 202 20 44 20 60 20 1250 0 1191 0 1206 -20
1250 -32 69 -78 108 -250 204 -148 83 -512 288 -613 344 -25 14 -128 73 -230
130 -102 58 -221 125 -265 149 -44 24 -96 53 -115 64 -19 12 -192 109 -383
216 -335 187 -351 195 -410 198 -34 2 -73 0 -87 -4z m257 -647 c103 -58 217
-122 253 -141 36 -20 70 -39 75 -43 9 -7 65 -38 171 -95 22 -13 59 -35 82 -49
23 -14 44 -26 46 -26 4 0 302 -167 516 -288 30 -18 85 -48 122 -68 37 -20 65
-40 63 -45 -3 -4 -18 -14 -33 -22 -15 -7 -209 -116 -432 -242 -350 -197 -709
-399 -845 -475 -22 -12 -75 -42 -117 -66 -43 -24 -82 -44 -88 -44 -6 0 -83 41
-173 92 -149 84 -420 236 -527 296 -25 14 -94 53 -155 87 -60 35 -132 75 -160
90 -27 16 -81 46 -120 68 -87 49 -133 75 -210 117 -33 18 -77 44 -97 57 -21
12 -42 23 -47 23 -5 0 -14 6 -20 13 -8 11 4 22 62 54 74 40 508 284 857 480
107 60 220 124 250 140 30 17 118 67 195 111 77 44 141 81 142 81 1 1 87 -47
190 -105z m-1398 -1516 c284 -160 536 -301 561 -315 25 -13 52 -28 60 -34 8
-5 44 -25 80 -45 36 -20 79 -44 95 -53 17 -10 59 -34 95 -54 l65 -36 0 -850
c-1 -468 -3 -853 -6 -856 -3 -3 -57 24 -119 60 -62 36 -114 65 -115 65 -2 0
-42 22 -90 50 -48 27 -88 50 -89 50 -2 0 -41 22 -87 48 -87 50 -133 76 -234
132 -33 18 -142 79 -243 136 -100 57 -187 104 -192 104 -6 0 -10 4 -10 9 0 5
-6 11 -13 13 -7 2 -86 44 -175 93 l-162 90 0 858 0 858 31 -17 c17 -9 264
-146 548 -306z m3001 -535 l0 -858 -117 -65 c-154 -85 -210 -117 -258 -145
-22 -12 -65 -36 -95 -53 -30 -16 -86 -48 -125 -70 -75 -42 -361 -203 -435
-244 -25 -14 -109 -62 -188 -106 -79 -45 -145 -82 -147 -82 -2 0 -38 -20 -79
-45 -42 -25 -80 -45 -84 -45 -7 0 -9 1707 -1 1713 2 2 247 140 544 307 297
167 637 359 755 426 118 67 218 122 223 123 4 1 7 -385 7 -856z"/>
</g>
</svg>
